<svg xmlns="http://www.w3.org/2000/svg" viewBox="0 0 120 120">
  <defs>
    <radialGradient id="bg" cx="50%" cy="50%" r="50%">
      <stop offset="0%" stop-color="#1a1a1a"/>
      <stop offset="100%" stop-color="#0a0a0a"/>
    </radialGradient>
    <linearGradient id="gold" x1="0%" y1="0%" x2="100%" y2="100%">
      <stop offset="0%" stop-color="#FCD34D"/>
      <stop offset="100%" stop-color="#D97706"/>
    </linearGradient>
    <linearGradient id="belt" x1="0%" y1="0%" x2="100%" y2="0%">
      <stop offset="0%" stop-color="#1F1F1F"/>
      <stop offset="45%" stop-color="#D4AF37"/>
      <stop offset="55%" stop-color="#D4AF37"/>
      <stop offset="100%" stop-color="#1F1F1F"/>
    </linearGradient>
  </defs>
  <circle cx="60" cy="60" r="58" fill="url(#bg)" stroke="#D97706" stroke-width="2"/>
  <rect x="32" y="44" width="56" height="8" rx="2" fill="url(#gold)"/>
  <polygon points="60,28 88,44 60,44 32,44" fill="#2a2a2a"/>
  <rect x="58" y="28" width="4" height="4" rx="1" fill="url(#gold)"/>
  <line x1="88" y1="44" x2="92" y2="52" stroke="#D4AF37" stroke-width="1.5"/>
  <circle cx="92" cy="54" r="3" fill="#D4AF37"/>
  <line x1="92" y1="57" x2="90" y2="63" stroke="#D4AF37" stroke-width="1"/>
  <line x1="92" y1="57" x2="92" y2="64" stroke="#D4AF37" stroke-width="1"/>
  <line x1="92" y1="57" x2="94" y2="63" stroke="#D4AF37" stroke-width="1"/>
  <rect x="20" y="70" width="80" height="9" rx="4" fill="url(#belt)"/>
  <text x="28" y="79" font-size="14" fill="#D97706">✊</text>
  <text x="78" y="79" font-size="14" fill="#D97706">✊</text>
  <text x="60" y="100" text-anchor="middle" font-family="Arial,sans-serif" font-size="11" font-weight="900" fill="#FCD34D" letter-spacing="3">CLKN</text>
</svg>
